<svg width="600.000000" height="600.000000" viewBox="0 0 600 600" fill="none" xmlns="http://www.w3.org/2000/svg" xmlns:xlink="http://www.w3.org/1999/xlink">
	<desc>
			Created with Pixso.
	</desc>
	<defs/>
	<rect id="Pylines logo" width="600.000000" height="600.000000" fill="#FFFFFF" fill-opacity="0"/>
	<rect id="Frame" x="12.500000" y="12.500000" rx="12.000000" width="575.000000" height="575.000000" stroke="#38A0C8" stroke-opacity="1.000000" stroke-width="25.000000"/>
	<path id="Python 2.7" d="M257.95 490L243.27 490L243.27 487.95L250.95 479.54C253.64 476.6 254.91 475 254.91 472.86C254.91 470.4 252.98 468.86 250.45 468.86C247.76 468.86 246.04 470.62 246.04 473.27L243.36 473.27C243.36 469.18 246.46 466.4 250.54 466.4C254.63 466.4 257.54 469.27 257.54 472.86C257.54 475.44 256.36 477.44 252.36 481.72L247.13 487.32L247.13 487.5L257.95 487.5L257.95 490ZM130.63 490L127.82 490L127.82 466.72L135.67 466.72C141.14 466.72 143.59 469.97 143.59 474.09C143.59 478.2 141.14 481.5 135.72 481.5L130.63 481.5L130.63 490ZM184.86 474.72C182.21 474.72 180.26 476.45 180.26 479.5L180.26 490L177.58 490L177.58 466.72L180.26 466.72L180.26 475.27L180.5 475.27C181.31 473.46 182.88 472.32 185.63 472.32C189.2 472.32 191.58 474.42 191.58 478.9L191.58 490L188.91 490L188.91 479.09C188.91 476.32 187.38 474.72 184.86 474.72ZM274.68 490L271.72 490L282.13 469.4L282.13 469.22L270.13 469.22L270.13 466.72L285.04 466.72L285.04 469.36L274.68 490ZM169.45 472.54L173.18 472.54L173.18 474.82L169.45 474.82L169.45 485C169.45 487.27 170.58 487.63 171.76 487.63C172.36 487.63 172.73 487.54 172.95 487.5L173.5 489.9C173.13 490.04 172.5 490.22 171.5 490.22C169.23 490.22 166.76 488.77 166.76 485.72L166.76 474.82L164.13 474.82L164.13 472.54L166.76 472.54L166.76 468.36L169.45 468.36L169.45 472.54ZM130.63 469.22L130.63 479L135.63 479C139.37 479 140.82 476.88 140.82 474.09C140.82 471.29 139.37 469.22 135.59 469.22L130.63 469.22ZM211.49 481.36C211.49 486.77 208.31 490.36 203.59 490.36C198.86 490.36 195.67 486.77 195.67 481.36C195.67 475.9 198.86 472.32 203.59 472.32C208.31 472.32 211.49 475.9 211.49 481.36ZM222.73 474.72C220.16 474.72 218.26 476.45 218.26 479.5L218.26 490L215.58 490L215.58 472.54L218.18 472.54L218.18 475.27L218.41 475.27C219.23 473.5 220.86 472.32 223.5 472.32C227.03 472.32 229.41 474.45 229.41 478.9L229.41 490L226.73 490L226.73 479.09C226.73 476.35 225.21 474.72 222.73 474.72ZM154.63 492.54C153.62 495.25 151.92 496.54 149.49 496.54C148.59 496.54 147.81 496.36 147.54 496.22L148.22 493.86C150.18 494.36 151.38 494.11 152.36 491.45L152.86 490.09L146.41 472.54L149.31 472.54L154.13 486.45L154.31 486.45L159.13 472.54L162.04 472.54L154.63 492.54ZM198.36 481.36C198.36 484.86 199.99 487.95 203.59 487.95C207.17 487.95 208.81 484.86 208.81 481.36C208.81 477.86 207.17 474.72 203.59 474.72C199.99 474.72 198.36 477.86 198.36 481.36ZM266.68 488.13C266.68 489.25 265.75 490.18 264.63 490.18C263.5 490.18 262.59 489.25 262.59 488.13C262.59 487 263.5 486.09 264.63 486.09C265.75 486.09 266.68 487 266.68 488.13Z" fill="#38A0C8" fill-opacity="1.000000" fill-rule="evenodd"/>
	<rect id="Разделитель" x="50.000000" y="501.452881" rx="1.801121" width="60.037380" height="3.602243" transform="rotate(-45 50.000000 501.452881)" fill="#FF5733" fill-opacity="1.000000"/>
	<rect id="Разделитель" x="92.452881" y="504.000000" rx="1.801121" width="60.037380" height="3.602243" transform="rotate(-135 92.452881 504.000000)" fill="#FF5733" fill-opacity="1.000000"/>
	<path id="Check" d="M53 359.36L67.06 373L98 343" stroke="#38A0C8" stroke-opacity="1.000000" stroke-width="4.000000" stroke-linecap="square"/>
	<path id="SOLID" d="M143.27 353.54L140.54 353.54C140.27 351.25 138.13 349.9 135.32 349.9C132.22 349.9 130.17 351.54 130.17 353.77C130.17 356.27 132.95 357.18 134.67 357.63L137.04 358.27C139.45 358.9 143.59 360.32 143.59 364.68C143.59 368.45 140.54 371.4 135.17 371.4C130.17 371.4 127.09 368.82 126.82 365L129.72 365C129.95 367.63 132.4 368.86 135.17 368.86C138.4 368.86 140.86 367.18 140.86 364.63C140.86 362.32 138.67 361.45 136.22 360.77L133.36 359.95C129.72 358.9 127.45 357.04 127.45 353.9C127.45 350 130.95 347.4 135.4 347.4C139.9 347.4 143.14 350.03 143.27 353.54ZM157.58 347.4C163.54 347.4 167.86 352 167.86 359.36C167.86 366.72 163.54 371.32 157.58 371.32C151.63 371.32 147.31 366.72 147.31 359.36C147.31 352 151.63 347.4 157.58 347.4ZM186.22 371L172.59 371L172.59 347.72L175.4 347.72L175.4 368.5L186.22 368.5L186.22 371ZM190.59 347.72L193.4 347.72L193.4 371L190.59 371L190.59 347.72ZM217.32 359.32C217.32 366.59 213.32 371 206.22 371L199.04 371L199.04 347.72L206.54 347.72C213.32 347.72 217.32 352.09 217.32 359.32ZM157.58 368.68C161.81 368.68 165.13 365.4 165.13 359.36C165.13 353.32 161.81 350.04 157.58 350.04C153.36 350.04 150.04 353.32 150.04 359.36C150.04 365.4 153.36 368.68 157.58 368.68ZM201.86 350.22L201.86 368.5L206.04 368.5C211.82 368.5 214.59 365 214.59 359.32C214.59 353.68 211.82 350.22 206.36 350.22L201.86 350.22Z" fill="#38A0C8" fill-opacity="1.000000" fill-rule="evenodd"/>
	<path id="Ruff, MyPy, Trivy, CI/CD ..." d="M170.36 233.54L174.27 233.54L174.27 235.82L170.36 235.82L170.36 251L167.67 251L167.67 235.82L164.86 235.82L164.86 233.54L167.67 233.54L167.67 231.13C167.67 228.13 170.09 226.63 172.59 226.63C173.91 226.63 174.72 226.9 175.13 227.09L174.36 229.4C174.09 229.32 173.63 229.13 172.86 229.13C171.09 229.13 170.36 230.04 170.36 231.77L170.36 233.54ZM181.91 233.54L185.81 233.54L185.81 235.82L181.91 235.82L181.91 251L179.22 251L179.22 235.82L176.41 235.82L176.41 233.54L179.22 233.54L179.22 231.13C179.22 228.13 181.63 226.63 184.13 226.63C185.45 226.63 186.27 226.9 186.68 227.09L185.91 229.4C185.63 229.32 185.18 229.13 184.41 229.13C182.63 229.13 181.91 230.04 181.91 231.77L181.91 233.54ZM435.22 226.63L437.68 226.63L430.18 254.5L427.72 254.5L435.22 226.63ZM340.9 228.82C340.9 229.82 340.04 230.63 339 230.63C337.95 230.63 337.08 229.82 337.08 228.82C337.08 227.82 337.95 227 339 227C340.04 227 340.9 227.82 340.9 228.82ZM407.45 227.4C412.14 227.4 415.95 230.22 416.82 235L413.99 235C413.32 231.77 410.54 230.04 407.45 230.04C403.22 230.04 399.9 233.32 399.9 239.36C399.9 245.4 403.22 248.68 407.45 248.68C410.54 248.68 413.32 246.95 413.99 243.72L416.82 243.72C415.95 248.5 412.14 251.32 407.45 251.32C401.49 251.32 397.17 246.72 397.17 239.36C397.17 232 401.49 227.4 407.45 227.4ZM450.58 227.4C455.27 227.4 459.08 230.22 459.95 235L457.13 235C456.45 231.77 453.68 230.04 450.58 230.04C446.36 230.04 443.04 233.32 443.04 239.36C443.04 245.4 446.36 248.68 450.58 248.68C453.68 248.68 456.45 246.95 457.13 243.72L459.95 243.72C459.08 248.5 455.27 251.32 450.58 251.32C444.63 251.32 440.31 246.72 440.31 239.36C440.31 232 444.63 227.4 450.58 227.4ZM130.63 251L127.82 251L127.82 227.72L135.67 227.72C141.13 227.72 143.59 230.75 143.59 234.86C143.59 237.95 142.2 240.37 139.24 241.38L144.5 251L141.22 251L136.32 241.89C136.12 241.9 135.92 241.9 135.72 241.9L130.63 241.9L130.63 251ZM206.09 251L206.09 227.72L209.45 227.72L217.36 247.04L217.64 247.04L225.54 227.72L228.9 227.72L228.9 251L226.27 251L226.27 233.32L226.04 233.32L218.77 251L216.22 251L208.95 233.32L208.72 233.32L208.72 251L206.09 251ZM255.17 251L252.36 251L252.36 227.72L260.22 227.72C265.69 227.72 268.13 230.97 268.13 235.09C268.13 239.2 265.69 242.5 260.27 242.5L255.17 242.5L255.17 251ZM313.41 230.22L306.09 230.22L306.09 227.72L323.54 227.72L323.54 230.22L316.22 230.22L316.22 251L313.41 251L313.41 230.22ZM421.36 227.72L424.17 227.72L424.17 251L421.36 251L421.36 227.72ZM482.77 239.32C482.77 246.59 478.77 251 471.68 251L464.5 251L464.5 227.72L472 227.72C478.77 227.72 482.77 232.09 482.77 239.32ZM130.63 230.22L130.63 239.36L135.63 239.36C139.36 239.36 140.82 237.65 140.82 234.86C140.82 232.07 139.36 230.22 135.59 230.22L130.63 230.22ZM255.17 230.22L255.17 240L260.17 240C263.92 240 265.36 237.88 265.36 235.09C265.36 232.29 263.92 230.22 260.13 230.22L255.17 230.22ZM467.31 230.22L467.31 248.5L471.5 248.5C477.27 248.5 480.04 245 480.04 239.32C480.04 233.68 477.27 230.22 471.81 230.22L467.31 230.22ZM328.4 251L325.72 251L325.72 233.54L328.32 233.54L328.32 236.18L328.49 236.18C329.14 234.45 330.95 233.27 333.04 233.27C333.44 233.27 334.14 233.29 334.45 233.32L334.45 236.04C334.27 236 333.53 235.86 332.82 235.86C330.27 235.86 328.4 237.59 328.4 239.95L328.4 251ZM154.4 248.63C156.4 248.63 158.9 247.13 158.9 243.86L158.9 233.54L161.58 233.54L161.58 251L158.9 251L158.9 248.04L158.72 248.04C157.9 249.82 156.18 251.22 153.54 251.22C150.27 251.22 147.9 249.09 147.9 244.63L147.9 233.54L150.58 233.54L150.58 244.45C150.58 247 152.18 248.63 154.4 248.63ZM241.04 253.54C240.03 256.25 238.32 257.54 235.9 257.54C235 257.54 234.22 257.36 233.95 257.22L234.63 254.86C236.59 255.36 237.79 255.11 238.77 252.45L239.27 251.09L232.82 233.54L235.72 233.54L240.54 247.45L240.72 247.45L245.54 233.54L248.45 233.54L241.04 253.54ZM279.18 253.54C278.16 256.25 276.46 257.54 274.04 257.54C273.13 257.54 272.36 257.36 272.09 257.22L272.76 254.86C274.73 255.36 275.93 255.11 276.91 252.45L277.41 251.09L270.95 233.54L273.86 233.54L278.68 247.45L278.86 247.45L283.68 233.54L286.59 233.54L279.18 253.54ZM340.31 251L337.63 251L337.63 233.54L340.31 233.54L340.31 251ZM356.59 233.54L359.49 233.54L353.04 251L350.32 251L343.86 233.54L346.77 233.54L351.59 247.45L351.77 247.45L356.59 233.54ZM369.91 253.54C368.89 256.25 367.19 257.54 364.77 257.54C363.86 257.54 363.09 257.36 362.81 257.22L363.49 254.86C365.45 255.36 366.66 255.11 367.63 252.45L368.13 251.09L361.68 233.54L364.59 233.54L369.41 247.45L369.59 247.45L374.41 233.54L377.31 233.54L369.91 253.54ZM500.13 249.13C500.13 250.25 499.21 251.18 498.08 251.18C496.96 251.18 496.04 250.25 496.04 249.13C496.04 248 496.96 247.09 498.08 247.09C499.21 247.09 500.13 248 500.13 249.13ZM508.95 249.13C508.95 250.25 508.03 251.18 506.9 251.18C505.78 251.18 504.86 250.25 504.86 249.13C504.86 248 505.78 247.09 506.9 247.09C508.03 247.09 508.95 248 508.95 249.13ZM517.77 249.13C517.77 250.25 516.84 251.18 515.72 251.18C514.59 251.18 513.68 250.25 513.68 249.13C513.68 248 514.59 247.09 515.72 247.09C516.84 247.09 517.77 248 517.77 249.13ZM188.86 247.82L191.77 247.82L191.59 249.04C191.2 251.63 190.04 255.13 189.49 256.68L187.45 256.68C187.74 255.24 188.39 252.17 188.72 249.09L188.86 247.82ZM290.13 247.82L293.04 247.82L292.86 249.04C292.47 251.63 291.31 255.13 290.77 256.68L288.72 256.68C289.02 255.24 289.66 252.17 289.99 249.09L290.13 247.82ZM380.86 247.82L383.77 247.82L383.59 249.04C383.2 251.63 382.04 255.13 381.49 256.68L379.45 256.68C379.74 255.24 380.39 252.17 380.72 249.09L380.86 247.82Z" fill="#38A0C8" fill-opacity="1.000000" fill-rule="evenodd"/>
	<path id="Check" d="M53 241.36L67.06 255L98 225" stroke="#38A0C8" stroke-opacity="1.000000" stroke-width="4.000000" stroke-linecap="square"/>
	<path id="Check" d="M53 108.36L67.06 122L98 92" stroke="#38A0C8" stroke-opacity="1.000000" stroke-width="4.000000" stroke-linecap="square"/>
	<path id="path" d="M171.16 60C147.55 60 149.02 70.29 149.02 70.29L149.05 80.95L171.58 80.95L171.58 84.15L140.1 84.15C140.1 84.15 125 82.43 125 106.39C125 130.33 138.18 129.49 138.18 129.49L146.05 129.49L146.05 118.37C146.05 118.37 145.63 105.11 159.03 105.11L181.37 105.11C181.37 105.11 193.93 105.32 193.93 92.91L193.93 72.4C193.93 72.4 195.83 60 171.16 60ZM158.74 67.17C160.98 67.17 162.79 68.99 162.79 71.24C162.79 73.49 160.98 75.32 158.74 75.32C157.62 75.32 156.66 74.92 155.87 74.13C155.08 73.33 154.68 72.37 154.68 71.24C154.68 68.99 156.5 67.17 158.74 67.17Z" fill="#38A0C8" fill-opacity="1.000000" fill-rule="nonzero"/>
	<path id="path" d="M171.83 153.01C195.44 153.01 193.97 142.72 193.97 142.72L193.94 132.05L171.41 132.05L171.41 128.85L202.89 128.85C202.89 128.85 218 130.58 218 106.62C218 82.67 204.81 83.52 204.81 83.52L196.94 83.52L196.94 94.64C196.94 94.64 197.36 107.89 183.96 107.89L161.62 107.89C161.62 107.89 149.07 107.69 149.07 120.09L149.07 140.6C149.07 140.6 147.16 153.01 171.83 153.01ZM184.25 145.84C183.13 145.84 182.18 145.45 181.39 144.65C180.59 143.85 180.2 142.89 180.2 141.76C180.2 139.52 182.01 137.69 184.25 137.69C186.49 137.69 188.31 139.51 188.31 141.76C188.31 144.02 186.49 145.84 184.25 145.84Z" fill="#38A0C8" fill-opacity="1.000000" fill-rule="nonzero"/>
</svg>
