<svg width="604.624146" height="604.695312" viewBox="0 0 604.624 604.695" fill="none" xmlns="http://www.w3.org/2000/svg" xmlns:xlink="http://www.w3.org/1999/xlink">
	<desc>
			Created with Pixso.
	</desc>
	<defs/>
	<rect id="Pylines logo 2" width="600.000000" height="600.000000" transform="translate(1.845337 2.000000)" fill="#FFFFFF" fill-opacity="0"/>
	<path id="path" d="M465.87 0C397.32 0 401.6 29.88 401.6 29.88L401.69 60.85L467.09 60.85L467.09 70.13L375.69 70.13C375.69 70.13 331.84 65.13 331.84 134.67C331.84 204.2 370.12 201.74 370.12 201.74L392.97 201.74L392.97 169.47C392.97 169.47 391.74 130.99 430.64 130.99L495.51 130.99C495.51 130.99 531.96 131.58 531.96 95.57L531.96 36.02C531.96 36.02 537.5 0 465.87 0ZM429.8 20.81C436.31 20.81 441.57 26.11 441.57 32.65C441.57 39.19 436.31 44.48 429.8 44.48C426.55 44.49 423.77 43.33 421.47 41.02C419.17 38.71 418.03 35.92 418.03 32.65C418.03 26.11 423.29 20.81 429.8 20.81Z" fill="#38A0C8" fill-opacity="1.000000" fill-rule="nonzero"/>
	<path id="path" d="M467.81 270.04C536.36 270.04 532.08 240.16 532.08 240.16L532 209.19L466.59 209.19L466.59 199.9L557.98 199.9C557.98 199.9 601.84 204.91 601.84 135.37C601.84 65.83 563.56 68.3 563.56 68.3L540.71 68.3L540.71 100.56C540.71 100.56 541.94 139.05 503.04 139.05L438.17 139.05C438.17 139.05 401.72 138.46 401.72 174.47L401.72 234.01C401.72 234.01 396.19 270.04 467.81 270.04ZM503.88 249.22C500.63 249.23 497.85 248.08 495.55 245.76C493.25 243.45 492.11 240.66 492.11 237.39C492.11 230.86 497.38 225.57 503.88 225.57C510.39 225.57 515.65 230.85 515.65 237.39C515.65 243.94 510.39 249.22 503.88 249.22Z" fill="#38A0C8" fill-opacity="1.000000" fill-rule="nonzero"/>
	<rect id="3" rx="6.000000" width="295.000000" height="20.000000" transform="matrix(-0.707107 -0.707107 -0.707107 0.707107 222.779 590.215)" fill="#38A0C8" fill-opacity="1.000000"/>
	<rect id="2" rx="6.000000" width="568.000000" height="20.000000" transform="matrix(-0.707107 -0.707107 -0.707107 0.707107 415.779 590.553)" fill="#38A0C8" fill-opacity="1.000000"/>
	<rect id="1" rx="6.000000" width="833.688965" height="20.000000" transform="matrix(-0.707107 -0.707107 -0.707107 0.707107 604.624 589.994)" fill="#38A0C8" fill-opacity="1.000000"/>
</svg>
