<svg width="600.000000" height="600.000000" viewBox="0 0 600 600" fill="none" xmlns="http://www.w3.org/2000/svg" xmlns:xlink="http://www.w3.org/1999/xlink">
	<desc>
			Created with Pixso.
	</desc>
	<defs/>
	<rect id="Pylines logo" width="600.000000" height="600.000000" fill="#FFFFFF" fill-opacity="0"/>
	<rect id="Frame" x="12.500000" y="12.500000" rx="12.000000" width="575.000000" height="575.000000" stroke="#38A0C8" stroke-opacity="1.000000" stroke-width="25.000000"/>
	<path id="Python 2.7" d="M257.3 488.22Q256.83 487.67 255.72 487.67L247.26 487.67L252.8 481.78Q254.79 479.67 255.62 477.96Q255.93 477.31 256.13 476.64Q256.45 475.51 256.45 474.29Q256.45 472.53 255.68 471.22Q255.22 470.43 254.48 469.81Q254.42 469.75 254.35 469.7Q252.4 468.14 249.22 468.14Q247.33 468.14 245.44 468.8Q243.55 469.46 242.15 470.58Q241.76 470.9 241.58 471.25Q241.41 471.6 241.41 472.08Q241.41 472.56 241.6 472.95Q241.68 473.14 241.81 473.3Q242.09 473.66 242.45 473.77Q242.6 473.81 242.76 473.81Q243.08 473.81 243.4 473.67Q243.72 473.53 244.04 473.3Q245.29 472.43 246.51 471.94Q247.25 471.64 248.02 471.52Q248.54 471.44 249.06 471.44Q250.65 471.44 251.51 472.23Q251.51 472.24 251.52 472.25Q251.65 472.36 251.76 472.5Q252.39 473.26 252.39 474.55Q252.39 475.76 251.76 477Q251.14 478.23 249.8 479.7L242.5 487.54Q242 488.06 241.84 488.66Q241.76 488.96 241.76 489.27Q241.76 489.72 241.94 490.08Q242.05 490.31 242.24 490.5Q242.34 490.61 242.46 490.69Q242.9 491 243.55 491L255.72 491Q256.8 491 257.27 490.46Q257.64 490.04 257.64 489.3Q257.64 488.62 257.3 488.22ZM190.17 476.11Q188.83 474.96 186.5 474.96Q184.81 474.96 183.48 475.62Q182.83 475.94 182.31 476.4Q181.76 476.89 181.35 477.53L181.35 470.07Q181.35 469.5 181.09 469.09Q180.97 468.91 180.8 468.76Q180.74 468.71 180.67 468.66Q180.16 468.28 179.36 468.28Q178.66 468.28 178.17 468.59Q178.03 468.68 177.91 468.79Q177.7 468.98 177.57 469.21Q177.35 469.6 177.35 470.13L177.35 489.27Q177.35 490 177.7 490.48Q177.77 490.59 177.87 490.68Q177.93 490.74 177.99 490.79Q178.5 491.19 179.33 491.19Q180.15 491.19 180.67 490.79Q180.74 490.74 180.8 490.68Q180.92 490.57 181.02 490.43Q181.35 489.96 181.35 489.27L181.35 482.13Q181.35 480.63 182.05 479.62Q182.2 479.41 182.38 479.22Q182.68 478.91 183.03 478.69Q183.91 478.13 185.16 478.13Q186.53 478.13 187.22 478.81Q187.27 478.86 187.31 478.92Q188 479.7 188 481.39L188 489.27Q188 489.98 188.34 490.45Q188.43 490.57 188.54 490.68Q188.61 490.74 188.68 490.8Q189.2 491.19 190.02 491.19Q190.85 491.19 191.35 490.79Q191.41 490.74 191.47 490.68Q191.58 490.58 191.66 490.46Q192 489.99 192 489.27L192 481.39Q192 477.68 190.17 476.11ZM128.3 490.88Q128.79 491.19 129.47 491.19Q130.25 491.19 130.76 490.83Q130.89 490.74 131 490.63Q131.1 490.52 131.19 490.39Q131.56 489.88 131.56 489.1L131.56 482.23L137.28 482.23Q140.85 482.23 142.86 480.46Q142.89 480.44 142.92 480.41Q143.39 479.98 143.75 479.47Q144.93 477.82 144.93 475.32Q144.93 472.8 143.74 471.15Q143.38 470.66 142.92 470.25Q142.9 470.23 142.88 470.21Q140.87 468.43 137.28 468.43L129.41 468.43Q128.6 468.43 128.09 468.83Q128.02 468.88 127.95 468.95Q127.88 469.02 127.82 469.09Q127.43 469.58 127.43 470.39L127.43 489.1Q127.43 489.88 127.79 490.39Q127.88 490.52 127.99 490.63Q128.13 490.77 128.3 490.88ZM284.21 468.79Q283.77 468.43 283.04 468.43L270.24 468.43Q269.16 468.43 268.69 468.97Q268.32 469.39 268.32 470.13Q268.32 470.81 268.66 471.21Q269.13 471.76 270.24 471.76L279.91 471.76L270.72 488.34Q270.4 488.89 270.4 489.43Q270.4 489.78 270.52 490.08Q270.67 490.44 270.99 490.73Q271.33 491.03 271.72 491.15Q272.02 491.25 272.35 491.25Q272.79 491.25 273.15 491.09Q273.73 490.83 274.12 490.17L284.32 471.64Q284.77 470.84 284.77 470.1Q284.77 469.56 284.53 469.16Q284.44 469.02 284.32 468.9Q284.27 468.84 284.21 468.79ZM175 488.76Q174.61 488.27 173.67 488.21L172.8 488.14Q171.81 488.07 171.28 487.54Q170.63 486.91 170.63 485.62L170.63 478.35L173.35 478.35Q174.21 478.35 174.67 477.97Q174.79 477.88 174.87 477.76Q175.14 477.41 175.14 476.85Q175.14 476.29 174.87 475.93Q174.78 475.82 174.67 475.73Q174.21 475.35 173.35 475.35L170.63 475.35L170.63 472.4Q170.63 471.79 170.35 471.35Q170.24 471.18 170.08 471.03Q169.97 470.93 169.85 470.85Q169.36 470.52 168.65 470.52Q167.84 470.52 167.33 470.9Q167.25 470.96 167.17 471.03Q167.02 471.17 166.92 471.34Q166.63 471.77 166.63 472.4L166.63 475.35L165.03 475.35Q164.16 475.35 163.69 475.73Q163.59 475.81 163.51 475.91Q163.23 476.28 163.23 476.85Q163.23 477.42 163.5 477.78Q163.59 477.88 163.69 477.97Q164.16 478.35 165.03 478.35L166.63 478.35L166.63 485.33Q166.63 488.01 167.97 489.45Q169.31 490.9 172.01 491.09L172.87 491.15Q174.02 491.22 174.64 490.82Q174.93 490.63 175.09 490.36Q175.26 490.06 175.26 489.65Q175.26 489.1 175 488.76ZM140.23 477.86Q139.19 479.06 136.77 479.06L131.56 479.06L131.56 471.64L136.77 471.64Q139.19 471.64 140.23 472.83Q141.03 473.75 141.03 475.35Q141.03 476.95 140.23 477.86ZM199 490.26Q200.8 491.25 203.21 491.25Q205.6 491.25 207.41 490.26Q208.24 489.8 208.9 489.16Q209.67 488.42 210.2 487.42Q211.18 485.56 211.18 483.09Q211.18 480.63 210.2 478.79Q209.68 477.82 208.93 477.08Q208.26 476.42 207.41 475.96Q205.6 474.96 203.21 474.96Q200.8 474.96 199 475.96Q198.19 476.4 197.54 477.02Q196.75 477.78 196.2 478.79Q195.21 480.63 195.21 483.09Q195.21 485.56 196.2 487.42Q196.76 488.46 197.57 489.23Q198.2 489.83 199 490.26ZM227.37 476.18Q226.01 474.96 223.56 474.96Q221.89 474.96 220.56 475.64Q220.54 475.65 220.51 475.67Q219.9 475.99 219.4 476.44Q218.8 476.97 218.37 477.68L218.37 476.82Q218.37 476.3 218.15 475.91Q218.03 475.7 217.84 475.53Q217.71 475.4 217.56 475.31Q217.11 475.03 216.48 475.03Q215.7 475.03 215.18 475.4Q215.09 475.47 215.01 475.54Q214.83 475.71 214.71 475.91Q214.47 476.32 214.47 476.89L214.47 489.27Q214.47 490 214.82 490.48Q214.89 490.59 214.99 490.68Q215.05 490.74 215.11 490.79Q215.62 491.19 216.45 491.19Q217.27 491.19 217.79 490.79Q217.86 490.74 217.92 490.68Q218.04 490.57 218.14 490.43Q218.47 489.96 218.47 489.27L218.47 482.13Q218.47 480.63 219.17 479.62Q219.32 479.41 219.5 479.22Q219.8 478.91 220.15 478.69Q221.03 478.13 222.28 478.13Q223.57 478.13 224.25 478.77Q224.35 478.86 224.43 478.96Q225.12 479.79 225.12 481.62L225.12 489.27Q225.12 489.98 225.46 490.45Q225.55 490.57 225.66 490.68Q225.73 490.74 225.8 490.8Q226.32 491.19 227.14 491.19Q227.97 491.19 228.47 490.79Q228.53 490.74 228.59 490.68Q228.7 490.58 228.78 490.46Q229.12 489.99 229.12 489.27L229.12 481.39Q229.12 478.17 227.75 476.57Q227.57 476.36 227.37 476.18ZM159.89 475.33Q159.46 475.6 159.2 476.18L154.76 486.03L150.27 476.14Q150.02 475.58 149.59 475.31Q149.58 475.31 149.57 475.3Q149.42 475.21 149.25 475.14Q148.94 475.03 148.58 475.03Q148.21 475.03 147.88 475.14Q147.49 475.27 147.16 475.54Q146.77 475.86 146.62 476.26Q146.53 476.51 146.53 476.78Q146.53 477.21 146.69 477.53L152.64 489.91L150.47 494.48Q150.27 494.93 150.27 495.28Q150.27 495.6 150.39 495.87Q150.53 496.2 150.84 496.45Q151.11 496.68 151.43 496.8Q151.76 496.92 152.13 496.92Q152.64 496.92 153.03 496.7Q153.52 496.43 153.83 495.82L162.56 477.53Q162.76 477.14 162.76 476.78Q162.76 476.47 162.65 476.19Q162.5 475.84 162.16 475.56Q161.8 475.25 161.38 475.13Q161.12 475.06 160.84 475.06Q160.56 475.06 160.31 475.14Q160.09 475.21 159.89 475.33ZM205.51 487.47Q204.59 488.14 203.18 488.14Q201.81 488.14 200.9 487.5Q200.53 487.24 200.23 486.87Q199.21 485.59 199.21 483.09Q199.21 480.63 200.25 479.33Q200.57 478.93 200.98 478.65Q201.88 478.03 203.21 478.03Q204.52 478.03 205.42 478.65Q205.83 478.93 206.14 479.33Q207.18 480.63 207.18 483.09Q207.18 485.59 206.14 486.87Q205.86 487.22 205.51 487.47ZM261.87 490.94Q262.36 491.19 262.98 491.19Q263.6 491.19 264.09 490.94Q264.41 490.78 264.68 490.5Q264.94 490.23 265.1 489.9Q265.35 489.4 265.35 488.78Q265.35 488.16 265.1 487.66Q264.94 487.34 264.68 487.07Q264.41 486.8 264.09 486.64Q263.6 486.39 262.98 486.39Q262.36 486.39 261.87 486.64Q261.55 486.8 261.28 487.07Q261.02 487.34 260.86 487.66Q260.61 488.16 260.61 488.78Q260.61 489.4 260.85 489.9Q261.02 490.23 261.28 490.5Q261.55 490.78 261.87 490.94Z" fill="#38A0C8" fill-opacity="1.000000" fill-rule="evenodd"/>
	<rect id="Разделитель" x="50.000000" y="501.452881" rx="1.801121" width="60.037380" height="3.602243" transform="rotate(-45 50.000000 501.452881)" fill="#FF5733" fill-opacity="1.000000"/>
	<rect id="Разделитель" x="92.452881" y="504.000000" rx="1.801121" width="60.037380" height="3.602243" transform="rotate(-135 92.452881 504.000000)" fill="#FF5733" fill-opacity="1.000000"/>
	<path id="Check" d="M53 359.36L67.06 373L98 343" stroke="#38A0C8" stroke-opacity="1.000000" stroke-width="4.000000" stroke-linecap="square"/>
	<path id="SOLID" d="M130.57 371.63Q132.77 372.28 135.24 372.28Q137.82 372.28 139.82 371.44Q141.8 370.6 142.89 369.11Q142.91 369.09 142.92 369.07Q143.33 368.52 143.59 367.9Q144.03 366.82 144.03 365.57Q144.03 363.95 143.29 362.81Q143.2 362.67 143.09 362.53Q142.14 361.31 140.37 360.53Q138.6 359.74 135.75 359.1Q133.06 358.49 131.93 357.78Q131.37 357.43 131.09 356.92Q130.82 356.42 130.82 355.77Q130.82 354.96 131.15 354.34Q131.47 353.75 132.08 353.32Q133.35 352.44 135.53 352.44Q137.32 352.44 138.54 352.91Q139.78 353.37 141.09 354.33Q141.54 354.59 141.81 354.68Q142.08 354.78 142.4 354.78Q142.57 354.78 142.72 354.73Q143.07 354.63 143.35 354.28Q143.5 354.09 143.6 353.87Q143.75 353.52 143.75 353.11Q143.75 352.6 143.57 352.27Q143.39 351.93 142.98 351.58Q142.63 351.28 142.25 351.02Q139.54 349.14 135.53 349.14Q133.03 349.14 131.03 350.03Q129.18 350.84 128.08 352.24Q127.99 352.36 127.9 352.48Q127.44 353.13 127.17 353.84Q126.78 354.86 126.78 356.03Q126.78 357.95 127.68 359.2Q128.58 360.44 130.34 361.25Q132.1 362.04 134.92 362.65Q137.64 363.26 138.8 363.92Q139.5 364.31 139.78 364.91Q139.97 365.3 139.97 365.78Q139.97 366.65 139.59 367.29Q139.28 367.81 138.72 368.18Q137.47 368.99 135.14 368.99Q133.32 368.99 131.81 368.54Q130.31 368.09 128.93 367.1Q128.2 366.65 127.62 366.65Q127.46 366.65 127.31 366.7Q126.95 366.8 126.68 367.15Q126.53 367.33 126.44 367.54Q126.28 367.89 126.28 368.32Q126.28 368.91 126.54 369.34Q126.72 369.64 127.01 369.85Q128.39 370.97 130.57 371.63ZM152.18 370.88Q154.6 372.28 157.89 372.28Q161.15 372.28 163.57 370.88Q164.46 370.36 165.2 369.67Q166.47 368.5 167.3 366.85Q168.61 364.22 168.61 360.7Q168.61 357.18 167.32 354.57Q166.51 352.96 165.28 351.8Q164.52 351.09 163.6 350.56Q161.18 349.14 157.89 349.14Q154.6 349.14 152.16 350.56Q151.22 351.1 150.45 351.83Q149.23 352.98 148.43 354.57Q147.14 357.18 147.14 360.7Q147.14 364.22 148.45 366.85Q149.29 368.52 150.58 369.7Q151.31 370.37 152.18 370.88ZM173.39 371.59Q173.89 372 174.72 372L185.89 372Q186.97 372 187.44 371.46Q187.81 371.05 187.81 370.3Q187.81 369.55 187.44 369.14Q186.97 368.6 185.89 368.6L176.9 368.6L176.9 351.32Q176.9 350.61 176.57 350.12Q176.47 349.97 176.34 349.84Q176.23 349.73 176.11 349.64Q175.59 349.28 174.82 349.28Q174.13 349.28 173.64 349.59Q173.48 349.69 173.33 349.84Q173.2 349.97 173.1 350.12Q172.77 350.61 172.77 351.32L172.77 370.07Q172.77 370.84 173.14 371.32Q173.2 371.41 173.28 371.49Q173.33 371.54 173.39 371.59ZM191.44 371.9Q191.92 372.19 192.58 372.19Q193.32 372.19 193.83 371.84Q193.97 371.74 194.1 371.61Q194.24 371.46 194.35 371.29Q194.66 370.8 194.66 370.1L194.66 351.32Q194.66 350.61 194.33 350.12Q194.23 349.97 194.1 349.84Q193.99 349.73 193.87 349.64Q193.35 349.28 192.58 349.28Q191.89 349.28 191.4 349.59Q191.24 349.69 191.09 349.84Q190.96 349.97 190.86 350.12Q190.53 350.61 190.53 351.32L190.53 370.1Q190.53 370.8 190.84 371.29Q190.95 371.46 191.09 371.61Q191.25 371.78 191.44 371.9ZM200.17 371.59Q200.68 372 201.51 372L207.84 372Q212.94 372 215.94 369.48Q216.19 369.27 216.44 369.03Q216.88 368.61 217.25 368.13Q219.49 365.3 219.49 360.7Q219.49 356.17 217.29 353.35Q216.9 352.84 216.44 352.39Q216.19 352.16 215.94 351.95Q212.94 349.43 207.84 349.43L201.51 349.43Q200.69 349.43 200.19 349.83Q200.11 349.88 200.04 349.95Q199.98 350.02 199.92 350.09Q199.52 350.58 199.52 351.39L199.52 370.04Q199.52 370.85 199.91 371.34Q199.97 371.42 200.04 371.49Q200.1 371.54 200.17 371.59ZM161.39 368.06Q159.94 368.99 157.89 368.99Q155.79 368.99 154.32 368.03Q153.59 367.56 153.01 366.85Q151.27 364.7 151.27 360.7Q151.27 356.7 153.01 354.57Q153.58 353.87 154.31 353.4Q155.78 352.44 157.89 352.44Q159.95 352.44 161.41 353.38Q162.15 353.85 162.74 354.57Q164.48 356.7 164.48 360.7Q164.48 364.7 162.74 366.85Q162.14 367.58 161.39 368.06ZM213.34 366.73Q211.4 368.64 207.58 368.64L203.65 368.64L203.65 352.79L207.58 352.79Q211.41 352.79 213.36 354.71Q215.36 356.68 215.36 360.7Q215.36 364.75 213.34 366.73Z" fill="#38A0C8" fill-opacity="1.000000" fill-rule="evenodd"/>
	<path id="Ruff, MyPy, Trivy, CI/CD ..." d="M420.8 253.96Q421.2 253.67 421.38 253.08L428.81 229.82Q428.88 229.61 428.89 229.39Q428.9 229.32 428.9 229.25Q428.9 228.89 428.76 228.6Q428.64 228.35 428.4 228.14Q428.13 227.9 427.81 227.79Q427.55 227.71 427.27 227.71Q427.02 227.71 426.8 227.77Q426.56 227.85 426.34 228L426.33 228Q425.92 228.29 425.74 228.89L418.31 252.15Q418.21 252.44 418.21 252.73Q418.21 253.09 418.36 253.39Q418.48 253.63 418.7 253.83Q418.99 254.08 419.32 254.19Q419.57 254.27 419.84 254.27Q420.11 254.27 420.34 254.19Q420.57 254.12 420.77 253.98Q420.78 253.97 420.8 253.96ZM333.18 232.71Q333.79 233.18 334.76 233.18Q335.72 233.18 336.33 232.73Q336.41 232.66 336.49 232.59Q336.71 232.38 336.86 232.12Q337.13 231.66 337.13 231.03Q337.13 230.42 336.86 229.96Q336.71 229.71 336.47 229.5Q336.38 229.42 336.27 229.35Q335.66 228.93 334.76 228.93Q333.76 228.93 333.13 229.41Q333.08 229.46 333.03 229.5Q332.81 229.69 332.67 229.93Q332.39 230.39 332.39 231.03Q332.39 231.66 332.66 232.12Q332.8 232.38 333.03 232.59Q333.1 232.66 333.18 232.71ZM394.67 250.88Q397.13 252.28 400.39 252.28Q402.5 252.28 404.35 251.66Q406.03 251.1 407.36 250.08Q407.51 249.97 407.65 249.85Q408.07 249.53 408.23 249.17Q408.39 248.79 408.39 248.32Q408.39 247.77 408.15 247.36Q408.09 247.24 408 247.14Q407.74 246.81 407.41 246.7Q407.25 246.65 407.08 246.65Q406.87 246.65 406.67 246.7Q406.54 246.73 406.41 246.78Q406.09 246.91 405.77 247.1Q404.29 248.09 403.12 248.51Q401.95 248.93 400.58 248.93Q398 248.93 396.39 247.67Q395.92 247.31 395.54 246.85Q393.83 244.76 393.83 240.7Q393.83 236.67 395.54 234.59Q395.92 234.12 396.39 233.76Q398 232.51 400.58 232.51Q402.02 232.51 403.2 232.91Q404.39 233.31 405.77 234.33Q406.44 234.78 407.08 234.78Q407.26 234.78 407.42 234.72Q407.75 234.62 408 234.3Q408.09 234.19 408.16 234.06Q408.39 233.65 408.39 233.11Q408.39 232.6 408.23 232.25Q408.07 231.9 407.65 231.58Q407.47 231.43 407.28 231.29Q405.98 230.32 404.35 229.77Q402.5 229.14 400.39 229.14Q397.13 229.14 394.68 230.55L394.67 230.56Q393.71 231.11 392.92 231.86Q391.71 232.99 390.91 234.57Q389.6 237.18 389.6 240.7Q389.6 244.22 390.91 246.85Q391.71 248.44 392.93 249.59Q393.72 250.32 394.67 250.88ZM435.06 250.88Q437.51 252.28 440.78 252.28Q442.88 252.28 444.74 251.66Q446.41 251.1 447.75 250.08Q447.89 249.97 448.03 249.85Q448.45 249.53 448.61 249.17Q448.78 248.79 448.78 248.32Q448.78 247.77 448.54 247.36Q448.47 247.24 448.38 247.14Q448.13 246.81 447.8 246.7Q447.64 246.65 447.46 246.65Q447.26 246.65 447.06 246.7Q446.92 246.73 446.79 246.78Q446.47 246.91 446.15 247.1Q444.67 248.09 443.5 248.51Q442.34 248.93 440.96 248.93Q438.38 248.93 436.77 247.67Q436.31 247.31 435.92 246.85Q434.21 244.76 434.21 240.7Q434.21 236.67 435.92 234.59Q436.31 234.12 436.77 233.76Q438.38 232.51 440.96 232.51Q442.4 232.51 443.59 232.91Q444.78 233.31 446.15 234.33Q446.82 234.78 447.46 234.78Q447.64 234.78 447.81 234.72Q448.13 234.62 448.38 234.3Q448.48 234.19 448.55 234.06Q448.78 233.65 448.78 233.11Q448.78 232.6 448.61 232.25Q448.45 231.9 448.03 231.58Q447.85 231.43 447.67 231.29Q446.36 230.32 444.74 229.77Q442.88 229.14 440.78 229.14Q437.52 229.14 435.07 230.55L435.06 230.56Q434.09 231.11 433.3 231.86Q432.09 232.99 431.3 234.57Q429.99 237.18 429.99 240.7Q429.99 244.22 431.3 246.85Q432.1 248.44 433.32 249.59Q434.1 250.32 435.06 250.88ZM227.71 229.57Q227.24 229.28 226.59 229.28Q226.28 229.28 226 229.37Q225.23 229.64 224.71 230.65L217.64 244.19L210.53 230.65Q210.05 229.71 209.3 229.41Q208.97 229.28 208.58 229.28Q207.94 229.28 207.48 229.57Q207.3 229.68 207.15 229.84Q207.06 229.94 206.98 230.05Q206.62 230.56 206.62 231.32L206.62 250.27Q206.62 251.1 207.03 251.6Q207.06 251.64 207.1 251.68Q207.21 251.8 207.34 251.89Q207.78 252.19 208.42 252.19Q209 252.19 209.42 251.93Q209.6 251.82 209.74 251.66Q209.85 251.55 209.93 251.42Q210.24 250.95 210.24 250.27L210.24 237.25L215.72 247.39Q216.1 248.12 216.55 248.44Q216.67 248.53 216.81 248.6Q217.17 248.76 217.6 248.76Q218.04 248.76 218.39 248.59Q218.53 248.52 218.65 248.43Q219.11 248.09 219.49 247.39L224.93 237.08L224.93 250.27Q224.93 251.1 225.33 251.6Q225.37 251.64 225.4 251.68Q225.52 251.8 225.65 251.89Q226.08 252.19 226.73 252.19Q227.33 252.19 227.77 251.92Q227.93 251.82 228.06 251.68Q228.15 251.6 228.22 251.5Q228.58 251.02 228.58 250.27L228.58 231.32Q228.58 230.59 228.23 230.09Q228.14 229.95 228.03 229.84Q227.88 229.68 227.71 229.57ZM412.91 251.9Q413.39 252.19 414.05 252.19Q414.79 252.19 415.3 251.84Q415.45 251.74 415.57 251.61Q415.72 251.46 415.82 251.29Q416.13 250.8 416.13 250.1L416.13 231.32Q416.13 230.61 415.81 230.12Q415.7 229.97 415.57 229.84Q415.46 229.73 415.34 229.64Q414.82 229.28 414.05 229.28Q413.36 229.28 412.88 229.59Q412.71 229.7 412.56 229.84Q412.43 229.97 412.33 230.12Q412 230.61 412 231.32L412 250.1Q412 250.8 412.31 251.29Q412.42 251.46 412.56 251.61Q412.72 251.78 412.91 251.9ZM173.63 233.28Q174.3 232.51 175.75 232.41L176.58 232.35Q177.48 232.26 177.86 231.77Q178.15 231.4 178.15 230.81Q178.15 230.28 177.89 229.94Q177.78 229.79 177.62 229.68Q177.09 229.31 175.81 229.4L174.98 229.46Q172.46 229.66 170.93 231Q170.71 231.19 170.51 231.4Q170.41 231.51 170.31 231.63Q168.94 233.31 168.94 236.12L168.94 236.35L167.33 236.35Q166.28 236.35 165.84 236.87Q165.54 237.23 165.54 237.85Q165.54 238.47 165.84 238.83Q166.27 239.35 167.33 239.35L168.94 239.35L168.94 250.27Q168.94 251.01 169.29 251.46Q169.39 251.58 169.51 251.68Q169.62 251.77 169.74 251.84Q170.25 252.15 170.95 252.15Q171.65 252.15 172.15 251.84Q172.27 251.77 172.37 251.68Q172.48 251.58 172.57 251.47Q172.94 251.02 172.94 250.27L172.94 239.35L175.65 239.35Q176.63 239.35 177.07 238.91Q177.52 239.35 178.5 239.35L180.1 239.35L180.1 250.27Q180.1 251.01 180.46 251.46Q180.56 251.58 180.67 251.68Q180.79 251.77 180.91 251.84Q181.42 252.15 182.12 252.15Q182.81 252.15 183.32 251.84Q183.43 251.77 183.54 251.68Q183.65 251.58 183.74 251.47Q184.1 251.02 184.1 250.27L184.1 239.35L186.82 239.35Q187.87 239.35 188.31 238.84Q188.61 238.47 188.61 237.85Q188.61 237.23 188.3 236.86Q187.87 236.35 186.82 236.35L184.1 236.35L184.1 235.61Q184.1 234.1 184.78 233.31Q184.79 233.29 184.8 233.28Q185.47 232.51 186.92 232.41L187.74 232.35Q188.64 232.26 189.03 231.77Q189.31 231.4 189.31 230.81Q189.31 230.28 189.06 229.94Q188.95 229.79 188.78 229.68Q188.26 229.31 186.98 229.4L186.15 229.46Q183.63 229.66 182.1 231Q181.88 231.19 181.68 231.4Q181.58 231.51 181.48 231.63Q180.1 233.31 180.1 236.12L180.1 236.35L178.5 236.35Q177.52 236.35 177.07 236.8Q176.63 236.35 175.65 236.35L172.94 236.35L172.94 235.61Q172.94 234.1 173.61 233.31Q173.62 233.29 173.63 233.28ZM145.86 250.53Q145.86 249.98 145.47 249.4L142.57 244.96Q141.89 243.93 141.18 243.35Q140.97 243.18 140.73 243.04Q140.2 242.71 139.56 242.56Q142.12 242.1 143.58 240.59Q143.67 240.49 143.76 240.39Q144.07 240.05 144.31 239.67Q145.25 238.18 145.25 236.09Q145.25 233.58 144.05 231.99Q143.7 231.53 143.25 231.15Q141.25 229.43 137.41 229.43L129.41 229.43Q128.6 229.43 128.09 229.83Q128.02 229.88 127.95 229.95Q127.88 230.02 127.82 230.09Q127.43 230.58 127.43 231.39L127.43 250.1Q127.43 250.88 127.79 251.39Q127.88 251.52 127.99 251.63Q128.13 251.77 128.3 251.88Q128.79 252.19 129.47 252.19Q130.19 252.19 130.68 251.85Q130.82 251.76 130.94 251.63Q131.03 251.54 131.11 251.43Q131.49 250.91 131.49 250.1L131.49 242.94L134.63 242.94Q135.78 242.94 136.5 243.35Q137.22 243.77 137.86 244.79L142.11 251.26Q142.4 251.69 142.8 251.92Q142.84 251.95 142.89 251.98Q143.18 252.13 143.48 252.18Q143.67 252.22 143.88 252.22Q144.36 252.22 144.77 252.05Q145.03 251.93 145.27 251.75Q145.6 251.48 145.75 251.13Q145.86 250.85 145.86 250.53ZM251.18 251.88Q251.67 252.19 252.35 252.19Q253.13 252.19 253.64 251.83Q253.77 251.74 253.88 251.63Q253.98 251.52 254.07 251.39Q254.44 250.88 254.44 250.1L254.44 243.23L260.16 243.23Q263.73 243.23 265.74 241.46Q265.77 241.44 265.8 241.41Q266.27 240.98 266.63 240.47Q267.81 238.82 267.81 236.32Q267.81 233.8 266.62 232.15Q266.26 231.66 265.8 231.25Q265.78 231.23 265.76 231.21Q263.75 229.43 260.16 229.43L252.29 229.43Q251.48 229.43 250.97 229.83Q250.9 229.88 250.83 229.95Q250.76 230.02 250.7 230.09Q250.31 230.58 250.31 231.39L250.31 250.1Q250.31 250.88 250.67 251.39Q250.76 251.52 250.87 251.63Q251.01 251.77 251.18 251.88ZM309.85 251.79Q310.36 252.15 311.14 252.15Q311.85 252.15 312.35 251.82Q312.5 251.72 312.63 251.6Q312.76 251.46 312.87 251.3Q313.19 250.81 313.19 250.1L313.19 232.83L319.01 232.83Q320.09 232.83 320.56 232.3Q320.93 231.88 320.93 231.13Q320.93 230.39 320.56 229.97Q320.09 229.43 319.01 229.43L303.24 229.43Q302.16 229.43 301.68 229.97Q301.32 230.39 301.32 231.13Q301.32 231.88 301.69 232.3Q302.16 232.83 303.24 232.83L309.06 232.83L309.06 250.1Q309.06 250.81 309.38 251.3Q309.48 251.46 309.62 251.6Q309.73 251.7 309.85 251.79ZM453.03 251.59Q453.54 252 454.37 252L460.71 252Q465.81 252 468.8 249.48Q469.06 249.27 469.3 249.03Q469.74 248.61 470.12 248.13Q472.35 245.3 472.35 240.7Q472.35 236.17 470.16 233.35Q469.76 232.84 469.3 232.39Q469.06 232.16 468.8 231.95Q465.81 229.43 460.71 229.43L454.37 229.43Q453.56 229.43 453.05 229.83Q452.98 229.88 452.91 229.95Q452.84 230.02 452.78 230.09Q452.39 230.58 452.39 231.39L452.39 250.04Q452.39 250.85 452.78 251.34Q452.84 251.42 452.91 251.49Q452.97 251.54 453.03 251.59ZM140.26 238.89Q139.17 239.77 136.84 239.77L131.46 239.77L131.46 232.64L136.84 232.64Q139.17 232.64 140.26 233.49Q140.42 233.61 140.55 233.76Q141.35 234.6 141.35 236.19Q141.35 237.7 140.6 238.56Q140.45 238.74 140.26 238.89ZM263.11 238.86Q262.07 240.06 259.65 240.06L254.44 240.06L254.44 232.64L259.65 232.64Q262.07 232.64 263.11 233.83Q263.91 234.75 263.91 236.35Q263.91 237.95 263.11 238.86ZM466.21 246.73Q464.26 248.64 460.45 248.64L456.52 248.64L456.52 232.79L460.45 232.79Q464.28 232.79 466.22 234.71Q468.23 236.68 468.23 240.7Q468.23 244.75 466.21 246.73ZM330.49 236.32Q330.02 235.97 329.25 236.03L328.8 236.06Q327.9 236.12 327.1 236.43Q326.6 236.63 326.13 236.93Q325.77 237.16 325.46 237.45Q324.75 238.12 324.33 239.1L324.33 237.82Q324.33 237.12 323.99 236.69Q323.91 236.58 323.81 236.5Q323.73 236.42 323.64 236.36Q323.17 236.03 322.47 236.03Q321.87 236.03 321.41 236.28Q321.23 236.38 321.08 236.51Q320.94 236.62 320.84 236.76Q320.51 237.2 320.51 237.89L320.51 250.27Q320.51 251.01 320.87 251.48Q320.96 251.6 321.08 251.7Q321.2 251.81 321.35 251.9Q321.83 252.19 322.5 252.19Q323.17 252.19 323.67 251.89Q323.81 251.81 323.94 251.7Q324.07 251.58 324.17 251.45Q324.51 250.98 324.51 250.27L324.51 243.55Q324.51 242.2 325.12 241.22Q325.24 241.02 325.4 240.83Q325.45 240.77 325.51 240.7Q326.39 239.73 328.16 239.55L329.12 239.45Q330.21 239.32 330.62 238.91Q331.04 238.49 331.04 237.63Q331.04 236.91 330.69 236.51Q330.63 236.44 330.56 236.38Q330.53 236.35 330.49 236.32ZM162.98 236.42Q162.47 236.03 161.67 236.03Q160.96 236.03 160.46 236.35Q160.34 236.44 160.23 236.54Q160.08 236.68 159.97 236.85Q159.68 237.29 159.68 237.92L159.68 245.05Q159.68 246.62 158.93 247.66Q158.81 247.83 158.67 247.98Q158.33 248.35 157.92 248.6Q157.11 249.08 156 249.08Q154.71 249.08 154.03 248.43Q153.96 248.36 153.89 248.28Q153.22 247.48 153.22 245.82L153.22 237.92Q153.22 237.29 152.93 236.85Q152.82 236.68 152.67 236.54Q152.6 236.47 152.52 236.42Q152.01 236.03 151.2 236.03Q150.48 236.03 149.98 236.37Q149.86 236.44 149.76 236.54Q149.62 236.67 149.52 236.83Q149.22 237.27 149.22 237.92L149.22 245.78Q149.22 249.39 151.01 250.99Q152.43 252.25 154.98 252.25Q156.37 252.25 157.51 251.71Q157.65 251.64 157.79 251.57Q158.25 251.31 158.65 250.97Q159.32 250.4 159.78 249.6L159.78 250.39Q159.78 251.04 160.08 251.47Q160.17 251.6 160.29 251.71Q160.36 251.78 160.45 251.84Q160.93 252.19 161.67 252.19Q162.4 252.19 162.91 251.85Q163.02 251.77 163.12 251.68Q163.32 251.5 163.45 251.27Q163.68 250.87 163.68 250.33L163.68 237.92Q163.68 237.29 163.39 236.85Q163.28 236.68 163.13 236.54Q163.06 236.47 162.98 236.42ZM244.72 236.33Q244.29 236.6 244.04 237.18L239.59 247.03L235.11 237.14Q234.85 236.58 234.42 236.31Q234.41 236.31 234.4 236.3Q234.25 236.21 234.08 236.14Q233.77 236.03 233.41 236.03Q233.04 236.03 232.71 236.14Q232.32 236.27 231.99 236.54Q231.6 236.86 231.45 237.26Q231.36 237.51 231.36 237.78Q231.36 238.21 231.52 238.53L237.47 250.91L235.3 255.48Q235.11 255.93 235.11 256.28Q235.11 256.6 235.22 256.87Q235.36 257.2 235.67 257.45Q235.95 257.68 236.27 257.8Q236.59 257.92 236.97 257.92Q237.47 257.92 237.87 257.7Q238.36 257.43 238.66 256.82L247.4 238.53Q247.59 238.14 247.59 237.78Q247.59 237.47 247.48 237.19Q247.33 236.84 247 236.56Q246.63 236.25 246.21 236.13Q245.95 236.06 245.67 236.06Q245.39 236.06 245.14 236.14Q244.92 236.21 244.72 236.33ZM282.77 236.33Q282.34 236.6 282.08 237.18L277.64 247.03L273.15 237.14Q272.9 236.58 272.47 236.31Q272.46 236.31 272.45 236.3Q272.3 236.21 272.13 236.14Q271.82 236.03 271.46 236.03Q271.09 236.03 270.76 236.14Q270.37 236.27 270.04 236.54Q269.65 236.86 269.5 237.26Q269.41 237.51 269.41 237.78Q269.41 238.21 269.57 238.53L275.52 250.91L273.35 255.48Q273.15 255.93 273.15 256.28Q273.15 256.6 273.27 256.87Q273.41 257.2 273.72 257.45Q273.99 257.68 274.31 257.8Q274.64 257.92 275.01 257.92Q275.52 257.92 275.91 257.7Q276.4 257.43 276.71 256.82L285.44 238.53Q285.64 238.14 285.64 237.78Q285.64 237.47 285.53 237.19Q285.38 236.84 285.04 236.56Q284.68 236.25 284.26 236.13Q284 236.06 283.72 236.06Q283.44 236.06 283.19 236.14Q282.97 236.21 282.77 236.33ZM333.6 251.9Q334.09 252.19 334.75 252.19Q335.43 252.19 335.93 251.89Q336.07 251.81 336.19 251.7Q336.32 251.58 336.43 251.45Q336.77 250.98 336.77 250.27L336.77 237.92Q336.77 237.19 336.42 236.74Q336.32 236.62 336.19 236.51Q336.08 236.41 335.95 236.33Q335.45 236.03 334.75 236.03Q334.07 236.03 333.58 236.33Q333.45 236.41 333.33 236.51Q333.22 236.6 333.14 236.71Q332.77 237.17 332.77 237.92L332.77 250.27Q332.77 251.01 333.13 251.48Q333.22 251.6 333.33 251.7Q333.46 251.81 333.6 251.9ZM352.5 236.32Q352.07 236.6 351.81 237.18L347.37 247.03L342.88 237.14Q342.58 236.52 342.08 236.24Q341.69 236.03 341.19 236.03Q340.82 236.03 340.48 236.14Q340.1 236.27 339.76 236.54Q339.38 236.86 339.23 237.26Q339.14 237.51 339.14 237.78Q339.14 238.21 339.3 238.53L345.25 250.91Q345.43 251.28 345.71 251.55Q345.88 251.72 346.1 251.84Q346.53 252.08 346.98 252.13Q347.12 252.15 347.26 252.15Q347.7 252.15 348.08 252.01Q348.26 251.94 348.43 251.84Q348.56 251.76 348.68 251.66Q349.03 251.36 349.25 250.91L355.17 238.53Q355.37 238.14 355.37 237.75Q355.37 237.44 355.26 237.16Q355.11 236.81 354.77 236.53Q354.41 236.22 353.99 236.1Q353.73 236.03 353.44 236.03Q353.19 236.03 352.96 236.1Q352.72 236.17 352.5 236.32ZM369.33 236.33Q368.9 236.6 368.64 237.18L364.2 247.03L359.71 237.14Q359.46 236.58 359.03 236.31Q359.02 236.31 359.01 236.3Q358.86 236.21 358.69 236.14Q358.38 236.03 358.02 236.03Q357.65 236.03 357.32 236.14Q356.93 236.27 356.6 236.54Q356.21 236.86 356.06 237.26Q355.97 237.51 355.97 237.78Q355.97 238.21 356.13 238.53L362.08 250.91L359.91 255.48Q359.71 255.93 359.71 256.28Q359.71 256.6 359.83 256.87Q359.97 257.2 360.28 257.45Q360.55 257.68 360.87 257.8Q361.2 257.92 361.57 257.92Q362.08 257.92 362.47 257.7Q362.96 257.43 363.27 256.82L372 238.53Q372.2 238.14 372.2 237.78Q372.2 237.47 372.09 237.19Q371.94 236.84 371.6 236.56Q371.24 236.25 370.82 236.13Q370.56 236.06 370.28 236.06Q370 236.06 369.75 236.14Q369.53 236.21 369.33 236.33ZM192.5 247.63Q192.03 247.39 191.43 247.39Q190.86 247.39 190.41 247.61Q190.06 247.78 189.78 248.07Q189.54 248.33 189.39 248.62Q189.13 249.14 189.13 249.78Q189.13 250.39 189.37 250.86Q189.51 251.12 189.71 251.34Q189.91 251.55 190.15 251.7Q190.62 252 191.23 252.06Q191.16 252.39 191.04 252.71Q190.69 253.61 189.98 254.36Q189.7 254.67 189.67 255.01Q189.66 255.05 189.66 255.1Q189.66 255.29 189.73 255.46Q189.81 255.69 190.02 255.87Q190.2 256.04 190.42 256.12Q190.62 256.19 190.85 256.19Q190.92 256.19 190.99 256.18Q191.39 256.13 191.75 255.77Q192.82 254.65 193.35 253.32Q193.86 252.03 193.86 250.53Q193.86 248.99 193.19 248.19Q192.88 247.83 192.5 247.63ZM289.68 247.63Q289.21 247.39 288.61 247.39Q288.05 247.39 287.59 247.61Q287.25 247.78 286.97 248.07Q286.72 248.33 286.57 248.62Q286.31 249.14 286.31 249.78Q286.31 250.39 286.56 250.86Q286.69 251.12 286.9 251.34Q287.09 251.55 287.33 251.7Q287.8 252 288.42 252.06Q288.34 252.39 288.22 252.71Q287.88 253.61 287.17 254.36Q286.89 254.67 286.85 255.01Q286.85 255.05 286.85 255.1Q286.85 255.29 286.91 255.46Q287 255.69 287.2 255.87Q287.39 256.04 287.6 256.12Q287.81 256.19 288.04 256.19Q288.1 256.19 288.17 256.18Q288.57 256.13 288.93 255.77Q290 254.65 290.53 253.32Q291.04 252.03 291.04 250.53Q291.04 248.99 290.37 248.19Q290.07 247.83 289.68 247.63ZM376.24 247.63Q375.77 247.39 375.17 247.39Q374.61 247.39 374.15 247.61Q373.81 247.78 373.53 248.07Q373.28 248.33 373.13 248.62Q372.87 249.14 372.87 249.78Q372.87 250.39 373.12 250.86Q373.25 251.12 373.46 251.34Q373.65 251.55 373.89 251.7Q374.36 252 374.98 252.06Q374.9 252.39 374.78 252.71Q374.44 253.61 373.73 254.36Q373.45 254.67 373.41 255.01Q373.41 255.05 373.41 255.1Q373.41 255.29 373.47 255.46Q373.56 255.69 373.76 255.87Q373.95 256.04 374.17 256.12Q374.37 256.19 374.6 256.19Q374.66 256.19 374.73 256.18Q375.13 256.13 375.49 255.77Q376.56 254.65 377.09 253.32Q377.6 252.03 377.6 250.53Q377.6 248.99 376.93 248.19Q376.63 247.83 376.24 247.63ZM485.62 251.94Q486.11 252.19 486.72 252.19Q487.34 252.19 487.83 251.94Q488.15 251.78 488.42 251.5Q488.69 251.23 488.85 250.9Q489.09 250.4 489.09 249.78Q489.09 249.16 488.84 248.66Q488.68 248.34 488.42 248.07Q488.15 247.8 487.83 247.64Q487.34 247.39 486.72 247.39Q486.11 247.39 485.62 247.64Q485.3 247.8 485.03 248.07Q484.77 248.34 484.61 248.66Q484.36 249.16 484.36 249.78Q484.36 250.4 484.6 250.9Q484.76 251.23 485.03 251.5Q485.3 251.78 485.62 251.94ZM493.55 251.94Q494.04 252.19 494.66 252.19Q495.28 252.19 495.77 251.94Q496.09 251.78 496.36 251.5Q496.62 251.23 496.79 250.9Q497.03 250.4 497.03 249.78Q497.03 249.16 496.78 248.66Q496.62 248.34 496.36 248.07Q496.09 247.8 495.77 247.64Q495.28 247.39 494.66 247.39Q494.04 247.39 493.55 247.64Q493.23 247.8 492.96 248.07Q492.7 248.34 492.54 248.66Q492.29 249.16 492.29 249.78Q492.29 250.4 492.54 250.9Q492.7 251.23 492.96 251.5Q493.23 251.78 493.55 251.94ZM501.49 251.94Q501.98 252.19 502.6 252.19Q503.21 252.19 503.7 251.94Q504.03 251.78 504.29 251.5Q504.56 251.23 504.72 250.9Q504.96 250.4 504.96 249.78Q504.96 249.16 504.71 248.66Q504.55 248.34 504.29 248.07Q504.03 247.8 503.7 247.64Q503.21 247.39 502.6 247.39Q501.98 247.39 501.49 247.64Q501.17 247.8 500.9 248.07Q500.64 248.34 500.48 248.66Q500.23 249.16 500.23 249.78Q500.23 250.4 500.47 250.9Q500.63 251.23 500.9 251.5Q501.17 251.78 501.49 251.94Z" fill="#38A0C8" fill-opacity="1.000000" fill-rule="evenodd"/>
	<path id="Check" d="M53 241.36L67.06 255L98 225" stroke="#38A0C8" stroke-opacity="1.000000" stroke-width="4.000000" stroke-linecap="square"/>
	<path id="Check" d="M53 108.36L67.06 122L98 92" stroke="#38A0C8" stroke-opacity="1.000000" stroke-width="4.000000" stroke-linecap="square"/>
	<path id="path" d="M171.16 60C147.55 60 149.02 70.29 149.02 70.29L149.05 80.95L171.58 80.95L171.58 84.15L140.1 84.15C140.1 84.15 125 82.43 125 106.39C125 130.33 138.18 129.49 138.18 129.49L146.05 129.49L146.05 118.37C146.05 118.37 145.63 105.11 159.03 105.11L181.37 105.11C181.37 105.11 193.93 105.32 193.93 92.91L193.93 72.4C193.93 72.4 195.83 60 171.16 60ZM158.74 67.17C160.98 67.17 162.79 68.99 162.79 71.24C162.79 73.49 160.98 75.32 158.74 75.32C157.62 75.32 156.66 74.92 155.87 74.13C155.08 73.33 154.68 72.37 154.68 71.24C154.68 68.99 156.5 67.17 158.74 67.17Z" fill="#38A0C8" fill-opacity="1.000000" fill-rule="nonzero"/>
	<path id="path" d="M171.83 153.01C195.44 153.01 193.97 142.72 193.97 142.72L193.94 132.05L171.41 132.05L171.41 128.85L202.89 128.85C202.89 128.85 218 130.58 218 106.62C218 82.67 204.81 83.52 204.81 83.52L196.94 83.52L196.94 94.64C196.94 94.64 197.36 107.89 183.96 107.89L161.62 107.89C161.62 107.89 149.07 107.69 149.07 120.09L149.07 140.6C149.07 140.6 147.16 153.01 171.83 153.01ZM184.25 145.84C183.13 145.84 182.18 145.45 181.39 144.65C180.59 143.85 180.2 142.89 180.2 141.76C180.2 139.52 182.01 137.69 184.25 137.69C186.49 137.69 188.31 139.51 188.31 141.76C188.31 144.02 186.49 145.84 184.25 145.84Z" fill="#38A0C8" fill-opacity="1.000000" fill-rule="nonzero"/>
</svg>
